<svg width="36" height="36" viewBox="0 0 36 36" fill="none" xmlns="http://www.w3.org/2000/svg">
<path d="M28.5 16.5C28.5 11.25 24.75 7.49999 19.5 7.49999" stroke="#212135" stroke-width="2" stroke-linecap="round" stroke-linejoin="round"/>
<path d="M34.5 16.5C34.5 7.49999 28.5 1.5 19.5 1.5" stroke="#212135" stroke-width="2" stroke-linecap="round" stroke-linejoin="round"/>
<path fill-rule="evenodd" clip-rule="evenodd" d="M3.52004 2.08329C4.64663 1.12357 6.39075 -0.0603035 8.27294 0.00238861L8.32813 0.0042269L8.38304 0.0101186C9.42667 0.122103 10.3741 0.642963 11.1859 1.42693L11.1909 1.43182C11.7467 1.97361 12.7277 3.11991 13.5806 4.23127C14.0127 4.79442 14.4351 5.37845 14.7695 5.90133C14.9364 6.16222 15.0926 6.42524 15.2195 6.67439C15.3339 6.89909 15.4712 7.20122 15.5387 7.52296C15.8935 9.17107 15.1498 10.4692 14.7313 11.1996C14.7149 11.2282 14.6991 11.2559 14.6838 11.2827L14.6493 11.3433C14.5276 11.5535 14.3723 11.7881 14.2375 11.9919L14.2226 12.0144C13.9391 12.4429 13.6927 12.8208 13.5352 13.1578C13.4897 13.255 13.4615 13.3287 13.4446 13.381C14.0159 14.7336 14.8167 16.0739 15.7867 17.328C16.9555 18.7212 18.7542 20.4494 19.6687 21.0936C20.5944 21.7457 21.5503 22.2917 22.5218 22.7115C22.5823 22.6937 22.6708 22.6616 22.7897 22.6066C23.1438 22.4429 23.5359 22.1898 23.9671 21.9076L23.9871 21.8945C24.1771 21.7702 24.3922 21.6294 24.5842 21.5175L24.5947 21.5114L24.6566 21.4766C24.6824 21.4622 24.7089 21.4472 24.7362 21.4318C25.4789 21.0129 26.7762 20.2812 28.4402 20.63L28.4438 20.6308L28.4365 20.6293L28.4402 20.63C28.7567 20.6956 29.0566 20.8292 29.2812 20.9412C29.5283 21.0645 29.7903 21.2162 30.0513 21.3789C30.5742 21.7048 31.1601 22.1165 31.7264 22.539C32.8383 23.3683 33.9944 24.3285 34.5472 24.8859L34.5425 24.8812L34.552 24.8908L34.5472 24.8859C35.3335 25.6679 35.9061 26.6307 35.9932 27.7535L35.9952 27.7802L35.9963 27.8069C36.0734 29.6544 34.9202 31.351 33.9713 32.4543C33.0095 33.5725 31.9111 34.4734 31.3369 34.8361C31.1917 34.9279 31.4386 34.7634 31.3369 34.8361C29.0543 36.4687 26.2003 36.2683 23.2734 34.9511C23.204 34.9199 23.3325 34.9752 23.2734 34.9511C20.1441 33.6763 16.5387 31.0806 13.1562 28.0504C11.9487 26.9686 9.62231 24.6884 8.88966 23.8498C8.8946 23.8552 8.89954 23.8605 8.90449 23.8659L8.87361 23.8314C8.87887 23.8374 8.88422 23.8436 8.88966 23.8498C5.47765 20.1513 2.51125 16.089 1.0729 12.6836C1.04096 12.608 1.10251 12.7467 1.0729 12.6836C0.378618 11.2037 0 9.75129 0 8.37886C0 7.01148 0.386665 5.75073 1.15335 4.66231C1.13672 4.68921 1.12119 4.71525 1.10683 4.74035L1.19147 4.60878C1.17866 4.62658 1.16595 4.64442 1.15335 4.66231C1.33315 4.37156 1.64176 3.98076 1.98644 3.59107C2.38738 3.13777 2.91325 2.60021 3.52004 2.08329ZM22.4408 22.73L22.445 22.7296ZM13.4222 13.4678L13.4226 13.4643ZM3.71306 6.22697C3.71029 6.23112 3.71112 6.22953 3.71112 6.22953L3.67224 6.29753L3.62649 6.3611C3.21794 6.92883 3 7.58977 3 8.37886C3 9.21034 3.23378 10.2331 3.79984 11.4327L3.81362 11.462L3.82614 11.4917C5.06592 14.4419 7.77967 18.2246 11.1088 21.831L11.1245 21.848L11.1397 21.8655C11.7341 22.5507 13.9802 24.7607 15.158 25.8159C18.4543 28.7689 21.7665 31.1035 24.4277 32.182L24.4553 32.1932L24.4825 32.2054C26.9449 33.3192 28.5539 33.153 29.6178 32.3772L29.6703 32.3389L29.7259 32.3053C29.9598 32.164 30.8666 31.4634 31.6968 30.4981C32.561 29.4933 33.0109 28.5812 32.9998 27.9607C32.9771 27.7564 32.8575 27.4357 32.4291 27.0104L32.4195 27.0009C32.027 26.6042 31.0086 25.7462 29.9327 24.9437C29.4036 24.549 28.8908 24.1905 28.4645 23.9249C28.2508 23.7917 28.0757 23.6924 27.9421 23.6257C27.8595 23.5846 27.8143 23.5668 27.8006 23.5614C27.3246 23.4696 26.9341 23.6383 26.1255 24.0924L26.085 24.1151C25.9696 24.1829 25.8209 24.2797 25.6099 24.4178L25.5759 24.44C25.1848 24.6961 24.6217 25.0648 24.0485 25.3297C23.5434 25.5632 22.5873 25.9361 21.6207 25.5856L21.5888 25.574L21.5574 25.561C20.2943 25.037 19.0833 24.3508 17.9411 23.5462C16.7336 22.6957 14.7321 20.7432 13.4678 19.2316L13.4501 19.2104L13.4332 19.1886C12.2639 17.681 11.2816 16.031 10.5876 14.3227L10.5795 14.3029L10.572 14.2828C10.2132 13.3219 10.5893 12.3753 10.8176 11.8871C11.078 11.3302 11.4418 10.7804 11.6973 10.3943C11.7052 10.3824 11.7129 10.3708 11.7205 10.3592C11.8739 10.1274 11.9791 9.96736 12.0505 9.84432L12.0774 9.79711C12.541 8.98391 12.698 8.61176 12.6097 8.17242C12.6041 8.15871 12.5865 8.11508 12.5463 8.03603C12.479 7.90403 12.3782 7.7303 12.2423 7.51774C11.9711 7.09372 11.6045 6.58402 11.2006 6.05769C10.383 4.99234 9.50515 3.97873 9.09935 3.58249C8.67677 3.17511 8.34088 3.03733 8.11477 3.00006C7.44377 3.00671 6.48705 3.49672 5.46549 4.36698C4.98322 4.77781 4.55724 5.2127 4.23357 5.57863C4.07229 5.76097 3.94151 5.92044 3.84579 6.04472C3.76265 6.15267 3.72315 6.21186 3.71306 6.22697Z" fill="#212135"/>
</svg>
