<svg width="48" height="48" viewBox="0 0 48 48" fill="none" xmlns="http://www.w3.org/2000/svg">
<path d="M25.5 14C25.5 13.1716 24.8284 12.5 24 12.5C23.1716 12.5 22.5 13.1716 22.5 14V24C22.5 24.5172 22.7664 24.9979 23.205 25.272L29.205 29.022C29.9075 29.4611 30.8329 29.2475 31.272 28.545C31.7111 27.8425 31.4975 26.9171 30.795 26.478L25.5 23.1686V14Z" fill="black"/>
<path fill-rule="evenodd" clip-rule="evenodd" d="M24 6.5C14.335 6.5 6.5 14.335 6.5 24C6.5 33.665 14.335 41.5 24 41.5C33.665 41.5 41.5 33.665 41.5 24C41.5 14.335 33.665 6.5 24 6.5ZM9.5 24C9.5 15.9919 15.9919 9.5 24 9.5C32.0081 9.5 38.5 15.9919 38.5 24C38.5 32.0081 32.0081 38.5 24 38.5C15.9919 38.5 9.5 32.0081 9.5 24Z" fill="black"/>
</svg>
