<svg width="36" height="36" viewBox="0 0 36 36" fill="none" xmlns="http://www.w3.org/2000/svg">
<g clip-path="url(#clip0_5_250)" filter="url(#filter0_i_5_250)">
<path d="M18 0C27.9412 0 36.0001 8.05891 36.0001 18C36.0001 27.9412 27.9412 36.0001 18 36.0001C8.05891 36.0001 0 27.9412 0 18C0 8.05891 8.05891 0 18 0Z" fill="black"/>
<path d="M18.0001 31.5646C25.4916 31.5646 31.5647 25.4915 31.5647 18C31.5647 10.5085 25.4916 4.43547 18.0001 4.43547C10.5086 4.43547 4.43555 10.5085 4.43555 18C4.43555 25.4915 10.5086 31.5646 18.0001 31.5646Z" fill="white"/>
<path d="M18 16.6651C16.7157 16.6651 15.6746 15.624 15.6746 14.3398C15.6746 13.0555 16.7157 12.0144 18 12.0144C19.2842 12.0144 20.3253 13.0555 20.3253 14.3398C20.3253 14.8154 20.7109 15.201 21.1866 15.201C21.6622 15.201 22.0478 14.8154 22.0478 14.3398C22.0307 12.4498 20.708 10.8232 18.8612 10.4211V9.38758C18.8612 8.91191 18.4756 8.52634 18 8.52634C17.5243 8.52634 17.1387 8.91191 17.1387 9.38758V10.4211C14.9731 10.9759 13.6673 13.1813 14.2222 15.3469C14.6678 17.0861 16.2058 18.324 18 18.3876C19.2842 18.3876 20.3253 19.4287 20.3253 20.7129C20.3253 21.9972 19.2842 23.0383 18 23.0383C16.7157 23.0383 15.6746 21.9972 15.6746 20.7129C15.6746 20.2373 15.2891 19.8517 14.8134 19.8517C14.3377 19.8517 13.9521 20.2373 13.9521 20.7129C13.953 22.6088 15.283 24.2443 17.1387 24.6316V26.1818C17.1387 26.6575 17.5243 27.0431 18 27.0431C18.4756 27.0431 18.8612 26.6575 18.8612 26.1818V24.6316C21.0268 24.0768 22.3327 21.8714 21.7778 19.7058C21.3322 17.9666 19.7942 16.7287 18 16.6651Z" fill="black"/>
</g>
<defs>
<filter id="filter0_i_5_250" x="0" y="0" width="36" height="40" filterUnits="userSpaceOnUse" color-interpolation-filters="sRGB">
<feFlood flood-opacity="0" result="BackgroundImageFix"/>
<feBlend mode="normal" in="SourceGraphic" in2="BackgroundImageFix" result="shape"/>
<feColorMatrix in="SourceAlpha" type="matrix" values="0 0 0 0 0 0 0 0 0 0 0 0 0 0 0 0 0 0 127 0" result="hardAlpha"/>
<feOffset dy="4"/>
<feGaussianBlur stdDeviation="2"/>
<feComposite in2="hardAlpha" operator="arithmetic" k2="-1" k3="1"/>
<feColorMatrix type="matrix" values="0 0 0 0 0 0 0 0 0 0 0 0 0 0 0 0 0 0 0.25 0"/>
<feBlend mode="normal" in2="shape" result="effect1_innerShadow_5_250"/>
</filter>
<clipPath id="clip0_5_250">
<rect width="36" height="36" fill="white"/>
</clipPath>
</defs>
</svg>
