<svg width="48" height="48" viewBox="0 0 48 48" fill="none" xmlns="http://www.w3.org/2000/svg">
<path d="M38 22C38 15 33 9.99999 26 9.99999" stroke="#212135" stroke-width="2" stroke-linecap="round" stroke-linejoin="round"/>
<path d="M46 22C46 9.99999 38 2.00001 26 2.00001" stroke="#212135" stroke-width="2" stroke-linecap="round" stroke-linejoin="round"/>
<path fill-rule="evenodd" clip-rule="evenodd" d="M4.69339 2.77772C6.19551 1.49809 8.52099 -0.0804047 11.0306 0.00318481L11.1042 0.00563587L11.1774 0.0134915C12.5689 0.162803 13.8321 0.857283 14.9145 1.90258L14.9212 1.90909C15.6623 2.63148 16.9702 4.15988 18.1074 5.64169C18.6836 6.39256 19.2468 7.17126 19.6927 7.86844C19.9152 8.2163 20.1234 8.56699 20.2926 8.89919C20.4452 9.19879 20.6283 9.60162 20.7183 10.0306C21.1913 12.2281 20.1997 13.959 19.6417 14.9328C19.6199 14.9709 19.5987 15.0079 19.5784 15.0436L19.5324 15.1243C19.3701 15.4047 19.1631 15.7175 18.9834 15.9892L18.9635 16.0192C18.5855 16.5906 18.257 17.0944 18.0469 17.5437C17.9863 17.6733 17.9487 17.7716 17.9261 17.8413C18.6878 19.6447 19.7556 21.4319 21.049 23.104C22.6073 24.9616 25.0056 27.2659 26.225 28.1248C27.4593 28.9942 28.7338 29.7222 30.029 30.282C30.1097 30.2583 30.2277 30.2154 30.3863 30.1421C30.8584 29.9239 31.3812 29.5864 31.9561 29.2101L31.9828 29.1926C32.2361 29.0269 32.5229 28.8391 32.7789 28.69L32.793 28.6818L32.8754 28.6355C32.9098 28.6162 32.9452 28.5962 32.9816 28.5757C33.9719 28.0171 35.7016 27.0415 37.9202 27.5067L37.9251 27.5077L37.9154 27.5057L37.9202 27.5067C38.3423 27.5941 38.7422 27.7723 39.0416 27.9216C39.3711 28.086 39.7205 28.2883 40.0683 28.5051C40.7656 28.9397 41.5467 29.4887 42.3019 30.052C43.7843 31.1577 45.3259 32.438 46.0629 33.1812L46.0566 33.175L46.0693 33.1877L46.0629 33.1812C47.1113 34.2239 47.8748 35.5076 47.9909 37.0047L47.9936 37.0403L47.9951 37.0759C48.0978 39.5392 46.5602 41.8014 45.295 43.2724C44.0126 44.7634 42.5482 45.9646 41.7826 46.4482C41.589 46.5705 41.9181 46.3512 41.7826 46.4482C38.7391 48.625 34.9337 48.3577 31.0312 46.6015C30.9387 46.5599 31.11 46.6336 31.0312 46.6015C26.8588 44.9018 22.0516 41.4407 17.5417 37.4005C15.9316 35.9582 12.8297 32.9179 11.8529 31.7998C11.8595 31.8069 11.8661 31.814 11.8726 31.8212L11.8315 31.7752C11.8385 31.7833 11.8456 31.7915 11.8529 31.7998C7.30353 26.8684 3.34834 21.452 1.43054 16.9115C1.38795 16.8106 1.47001 16.9956 1.43054 16.9115C0.504824 14.9383 0 13.0017 0 11.1718C0 9.34864 0.515553 7.66765 1.5378 6.21642C1.51562 6.25228 1.49492 6.287 1.47578 6.32047L1.58862 6.14504C1.57154 6.16877 1.5546 6.19256 1.5378 6.21642C1.77753 5.82875 2.18902 5.30768 2.64859 4.78809C3.18318 4.18369 3.88433 3.46695 4.69339 2.77772ZM29.9211 30.3067L29.9267 30.3061ZM17.8963 17.957L17.8969 17.9523ZM4.95075 8.30263C4.94706 8.30816 4.94816 8.30604 4.94816 8.30604L4.89632 8.3967L4.83532 8.48147C4.29058 9.23843 4 10.1197 4 11.1718C4 12.2805 4.3117 13.6441 5.06645 15.2437L5.08483 15.2826L5.10151 15.3223C6.75456 19.2559 10.3729 24.2995 14.8118 29.108L14.8327 29.1307L14.8529 29.154C15.6455 30.0676 18.6402 33.0143 20.2107 34.4212C24.6058 38.3586 29.022 41.4713 32.5703 42.9093L32.6071 42.9242L32.6433 42.9406C35.9265 44.4256 38.0719 44.204 39.4903 43.1696L39.5604 43.1185L39.6345 43.0737C39.9464 42.8853 41.1554 41.9511 42.2624 40.6641C43.4146 39.3245 44.0145 38.1082 43.9997 37.2809C43.9695 37.0085 43.81 36.5809 43.2387 36.0139L43.226 36.0012C42.7026 35.4723 41.3448 34.3282 39.9103 33.2583C39.2048 32.732 38.521 32.254 37.9527 31.8998C37.6678 31.7223 37.4342 31.5898 37.2561 31.501C37.146 31.4461 37.0858 31.4224 37.0674 31.4151C36.4328 31.2928 35.9122 31.5177 34.834 32.1232L34.78 32.1535C34.6261 32.2439 34.4279 32.3729 34.1465 32.5571L34.1012 32.5867C33.5797 32.9281 32.8289 33.4197 32.0647 33.7729C31.3912 34.0843 30.1164 34.5815 28.8276 34.1141L28.785 34.0986L28.7432 34.0813C27.0591 33.3827 25.4444 32.4677 23.9215 31.395C22.3115 30.2609 19.6428 27.6576 17.9571 25.6421L17.9335 25.6139L17.9109 25.5848C16.3518 23.5747 15.0421 21.3747 14.1168 19.097L14.106 19.0705L14.096 19.0437C13.6176 17.7625 14.1191 16.5004 14.4234 15.8494C14.7706 15.1069 15.2557 14.3739 15.5964 13.8591C15.6069 13.8433 15.6172 13.8277 15.6274 13.8123C15.8318 13.5032 15.9721 13.2898 16.0674 13.1258L16.1033 13.0628C16.7213 11.9785 16.9307 11.4823 16.8129 10.8966C16.8055 10.8783 16.7821 10.8201 16.7284 10.7147C16.6387 10.5387 16.5043 10.3071 16.323 10.0237C15.9614 9.45829 15.4727 8.77869 14.9341 8.07692C13.844 6.65646 12.6735 5.30498 12.1325 4.77665C11.569 4.23348 11.1212 4.04978 10.8197 4.00007C9.92502 4.00895 8.6494 4.66229 7.28732 5.82264C6.6443 6.37042 6.07632 6.95026 5.64476 7.43818C5.42973 7.68129 5.25535 7.89391 5.12771 8.05963C5.01687 8.20356 4.96419 8.28248 4.95075 8.30263Z" fill="#212135"/>
</svg>
